<?xml version="1.0" standalone="no"?>
 <!DOCTYPE svg PUBLIC "-//W3C//DTD SVG 1.1//EN" 
 "http://www.w3.org/Graphics/SVG/1.1/DTD/svg11.dtd"> 
<svg
  xmlns:svg="http://www.w3.org/2000/svg"
  xmlns="http://www.w3.org/2000/svg"
  xmlns:xlink="http://www.w3.org/1999/xlink"
  version="1.1"
  width="297.0022mm" height="210.0072mm" viewBox="0.0000 0.0000 297.0022 210.0072">
<title>SVG Image created as calliope-mirror-heater-B_Cu.svg date 2025/09/15 17:02:10 </title>
  <desc>Image generated by PCBNEW </desc>
<g style="fill:#000000; fill-opacity:1.0000;stroke:#000000; stroke-opacity:1.0000;
stroke-linecap:round; stroke-linejoin:round;"
 transform="translate(0 0) scale(1 1)">
<path style="fill:#4D7FC4; fill-opacity:1.0000; stroke:none;fill-rule:evenodd;"
d="M 156.0000,85.3500
156.0080,85.2483
156.0535,85.0919
156.1364,84.9516
156.2516,84.8364
156.3919,84.7535
156.5483,84.7080
156.6500,84.7000
157.9500,84.7000
158.0517,84.7080
158.2081,84.7535
158.3484,84.8364
158.4636,84.9516
158.5465,85.0919
158.5920,85.2483
158.6000,85.3500
158.6000,86.6500
158.5920,86.7517
158.5465,86.9081
158.4636,87.0484
158.3484,87.1636
158.2081,87.2465
158.0517,87.2920
157.9500,87.3000
156.6500,87.3000
156.5483,87.2920
156.3919,87.2465
156.2516,87.1636
156.1364,87.0484
156.0535,86.9081
156.0080,86.7517
156.0000,86.6500
Z" /> 
</g>
<g style="fill:#4D7FC4; fill-opacity:1.0000; stroke:none;">
<circle cx="162.3800" cy="86.0000" r="1.3000" /> 
</g>
<g style="fill:none; 
stroke:#4D7FC4; stroke-width:1.0000; stroke-opacity:1; 
stroke-linecap:round; stroke-linejoin:round;">
<path d="M162.0925 27.8500
L162.0925 28.9500
" />
<path d="M162.0925 32.1800
L162.0925 32.9800
" />
<path d="M170.7325 27.8500
L170.7325 28.9500
" />
<path d="M170.7325 32.1800
L170.7325 32.9800
" />
<path style="fill:#4D7FC4; fill-opacity:1.0000; stroke:none;fill-rule:evenodd;"
d="M 142.5400,76.7300
140.8400,76.7300
140.8400,75.0300
142.5400,75.0300
Z" /> 
</g>
<g style="fill:#4D7FC4; fill-opacity:1.0000; stroke:none;">
<circle cx="141.6900" cy="73.3400" r="0.8500" /> 
</g>
<g style="fill:#4D7FC4; fill-opacity:1.0000; stroke:none;">
<circle cx="144.2300" cy="75.8800" r="0.8500" /> 
</g>
<g style="fill:#4D7FC4; fill-opacity:1.0000; stroke:none;">
<circle cx="144.2300" cy="73.3400" r="0.8500" /> 
</g>
<g style="fill:#4D7FC4; fill-opacity:1.0000; stroke:none;">
<circle cx="146.7700" cy="75.8800" r="0.8500" /> 
</g>
<g style="fill:#4D7FC4; fill-opacity:1.0000; stroke:none;">
<circle cx="146.7700" cy="73.3400" r="0.8500" /> 
</g>
<g style="fill:#4D7FC4; fill-opacity:1.0000; stroke:none;">
<circle cx="149.3100" cy="75.8800" r="0.8500" /> 
</g>
<g style="fill:#4D7FC4; fill-opacity:1.0000; stroke:none;">
<circle cx="149.3100" cy="73.3400" r="0.8500" /> 
</g>
<g style="fill:#4D7FC4; fill-opacity:1.0000; stroke:none;">
<circle cx="151.8500" cy="75.8800" r="0.8500" /> 
</g>
<g style="fill:#4D7FC4; fill-opacity:1.0000; stroke:none;">
<circle cx="151.8500" cy="73.3400" r="0.8500" /> 
</g>
<g style="fill:#4D7FC4; fill-opacity:1.0000; stroke:none;">
<circle cx="154.3900" cy="75.8800" r="0.8500" /> 
</g>
<g style="fill:#4D7FC4; fill-opacity:1.0000; stroke:none;">
<circle cx="154.3900" cy="73.3400" r="0.8500" /> 
</g>
<g style="fill:#4D7FC4; fill-opacity:1.0000; stroke:none;">
<circle cx="156.9300" cy="75.8800" r="0.8500" /> 
</g>
<g style="fill:#4D7FC4; fill-opacity:1.0000; stroke:none;">
<circle cx="156.9300" cy="73.3400" r="0.8500" /> 
</g>
<g style="fill:#4D7FC4; fill-opacity:1.0000; stroke:none;">
<circle cx="159.4700" cy="75.8800" r="0.8500" /> 
</g>
<g style="fill:#4D7FC4; fill-opacity:1.0000; stroke:none;">
<circle cx="159.4700" cy="73.3400" r="0.8500" /> 
</g>
<g style="fill:#4D7FC4; fill-opacity:1.0000; stroke:none;">
<circle cx="162.0100" cy="75.8800" r="0.8500" /> 
</g>
<g style="fill:#4D7FC4; fill-opacity:1.0000; stroke:none;">
<circle cx="162.0100" cy="73.3400" r="0.8500" /> 
</g>
<g style="fill:#4D7FC4; fill-opacity:1.0000; stroke:none;">
<circle cx="164.5500" cy="75.8800" r="0.8500" /> 
</g>
<g style="fill:#4D7FC4; fill-opacity:1.0000; stroke:none;">
<circle cx="164.5500" cy="73.3400" r="0.8500" /> 
</g>
<g style="fill:#4D7FC4; fill-opacity:1.0000; stroke:none;">
<circle cx="167.0900" cy="75.8800" r="0.8500" /> 
</g>
<g style="fill:#4D7FC4; fill-opacity:1.0000; stroke:none;">
<circle cx="167.0900" cy="73.3400" r="0.8500" /> 
</g>
<g style="fill:#4D7FC4; fill-opacity:1.0000; stroke:none;">
<circle cx="169.6300" cy="75.8800" r="0.8500" /> 
</g>
<g style="fill:#4D7FC4; fill-opacity:1.0000; stroke:none;">
<circle cx="169.6300" cy="73.3400" r="0.8500" /> 
</g>
<g style="fill:#4D7FC4; fill-opacity:1.0000; stroke:none;">
<circle cx="172.1700" cy="75.8800" r="0.8500" /> 
</g>
<g style="fill:#4D7FC4; fill-opacity:1.0000; stroke:none;">
<circle cx="172.1700" cy="73.3400" r="0.8500" /> 
</g>
<g style="fill:#4D7FC4; fill-opacity:1.0000; stroke:none;">
<circle cx="174.7100" cy="75.8800" r="0.8500" /> 
</g>
<g style="fill:#4D7FC4; fill-opacity:1.0000; stroke:none;">
<circle cx="174.7100" cy="73.3400" r="0.8500" /> 
</g>
<g style="fill:#4D7FC4; fill-opacity:1.0000; stroke:none;">
<circle cx="177.2500" cy="75.8800" r="0.8500" /> 
</g>
<g style="fill:#4D7FC4; fill-opacity:1.0000; stroke:none;">
<circle cx="177.2500" cy="73.3400" r="0.8500" /> 
</g> 
</svg>
