<?xml version="1.0" encoding="UTF-8" standalone="no"?>
<!-- Created with Inkscape (http://www.inkscape.org/) -->

<svg
   width="400mm"
   height="300mm"
   viewBox="0 0 400 300"
   version="1.1"
   id="svg5"
   xml:space="preserve"
   inkscape:version="1.2 (dc2aedaf03, 2022-05-15)"
   sodipodi:docname="CoreBox_V3.svg"
   xmlns:inkscape="http://www.inkscape.org/namespaces/inkscape"
   xmlns:sodipodi="http://sodipodi.sourceforge.net/DTD/sodipodi-0.dtd"
   xmlns="http://www.w3.org/2000/svg"
   xmlns:svg="http://www.w3.org/2000/svg"><sodipodi:namedview
     id="namedview7"
     pagecolor="#ffffff"
     bordercolor="#666666"
     borderopacity="1.0"
     inkscape:showpageshadow="2"
     inkscape:pageopacity="0.0"
     inkscape:pagecheckerboard="0"
     inkscape:deskcolor="#d1d1d1"
     inkscape:document-units="mm"
     showgrid="false"
     inkscape:zoom="0.91401515"
     inkscape:cx="760.38127"
     inkscape:cy="586.97058"
     inkscape:window-width="2560"
     inkscape:window-height="1372"
     inkscape:window-x="1912"
     inkscape:window-y="-8"
     inkscape:window-maximized="1"
     inkscape:current-layer="g423" /><defs
     id="defs2"><marker
       id="DistanceX"
       orient="auto"
       refX="0.0"
       refY="0.0"
       style="overflow:visible"><path
         d="M 3,-3 L -3,3 M 0,-5 L  0,5"
         style="stroke:#000000; stroke-width:0.5"
         id="path134" /></marker><pattern
       id="Hatch"
       patternUnits="userSpaceOnUse"
       width="8"
       height="8"
       x="0"
       y="0"><path
         d="M8 4 l-4,4"
         stroke="#000000"
         stroke-width="0.25"
         linecap="square"
         id="path137" /><path
         d="M6 2 l-4,4"
         stroke="#000000"
         stroke-width="0.25"
         linecap="square"
         id="path139" /><path
         d="M4 0 l-4,4"
         stroke="#000000"
         stroke-width="0.25"
         linecap="square"
         id="path141" /></pattern><symbol
       id="*Model_Space" /><symbol
       id="*Paper_Space" /><symbol
       id="*Paper_Space0" /><symbol
       id="*D12"><path
         style="fill:none;stroke:#000000"
         d="M 67973.3 -47596.2 L 68009.2 -47596.2"
         id="path147" /><path
         style="fill:none;stroke:#000000"
         d="M 67973.3 -47002.8 L 68009.2 -47002.8"
         id="path149" /><path
         style="fill:none;stroke:#000000"
         d="M 68004.4 -47586.8 L 68004.4 -47012.3"
         id="path151" /><path
         style="fill:none;stroke:#000000"
         d="M 68002.9 -47586.8 L 68006 -47586.8 L 68004.4 -47596.2 z"
         id="path153" /><path
         style="fill:none;stroke:#000000"
         d="M 68002.9 -47012.3 L 68006 -47012.3 L 68004.4 -47002.8 z"
         id="path155" /><text
         x="67997.241758"
         y="-47299.521775"
         style="font-size: 9.449px; fill: #000000; font-family: Arial; text-anchor: middle"
         transform="rotate (-90.000000 67997.241758 -47299.521775)"
         id="text159"><tspan
           sodipodi:role="line"
           dx="0.000000"
           dy="4.724409"
           id="tspan157">157</tspan></text><path
         style="stroke:none;fill:#ff0000"
         inkscape:dxfpoint="1"
         d="m 67970.9 -47596.2 l 2.9375 -6.34375 l 0.8125 1.90625 l 6.84375 -6.84375 l 0 0 l 0.6875 0.6875 l -6.84375 6.84375 l 1.90625 0.8125 z"
         id="path161" /><path
         style="stroke:none;fill:#ff0000"
         inkscape:dxfpoint="1"
         d="m 67970.9 -47002.8 l 2.9375 -6.34375 l 0.8125 1.90625 l 6.84375 -6.84375 l 0 0 l 0.6875 0.6875 l -6.84375 6.84375 l 1.90625 0.8125 z"
         id="path163" /><path
         style="stroke:none;fill:#ff0000"
         inkscape:dxfpoint="1"
         d="m 68004.4 -47002.8 l 2.9375 -6.34375 l 0.8125 1.90625 l 6.84375 -6.84375 l 0 0 l 0.6875 0.6875 l -6.84375 6.84375 l 1.90625 0.8125 z"
         id="path165" /></symbol><symbol
       id="*D13"><path
         style="fill:none;stroke:#000000"
         d="M 67407.8 -47598.6 L 67407.8 -47623.2"
         id="path168" /><path
         style="fill:none;stroke:#000000"
         d="M 67970.9 -47598.6 L 67970.9 -47623.2"
         id="path170" /><path
         style="fill:none;stroke:#000000"
         d="M 67417.2 -47618.5 L 67961.5 -47618.5"
         id="path172" /><path
         style="fill:none;stroke:#000000"
         d="M 67417.2 -47620 L 67417.2 -47616.9 L 67407.8 -47618.5 z"
         id="path174" /><path
         style="fill:none;stroke:#000000"
         d="M 67961.5 -47620 L 67961.5 -47616.9 L 67970.9 -47618.5 z"
         id="path176" /><text
         x="67689.341041"
         y="-47625.647219"
         style="font-size: 9.449px; fill: #000000; font-family: Arial; text-anchor: middle"
         id="text180"><tspan
           sodipodi:role="line"
           dx="0.000000"
           dy="4.724409"
           id="tspan178">149</tspan></text><path
         style="stroke:none;fill:#ff0000"
         inkscape:dxfpoint="1"
         d="m 67407.8 -47596.2 l 2.9375 -6.34375 l 0.8125 1.90625 l 6.84375 -6.84375 l 0 0 l 0.6875 0.6875 l -6.84375 6.84375 l 1.90625 0.8125 z"
         id="path182" /><path
         style="stroke:none;fill:#ff0000"
         inkscape:dxfpoint="1"
         d="m 67970.9 -47596.2 l 2.9375 -6.34375 l 0.8125 1.90625 l 6.84375 -6.84375 l 0 0 l 0.6875 0.6875 l -6.84375 6.84375 l 1.90625 0.8125 z"
         id="path184" /><path
         style="stroke:none;fill:#ff0000"
         inkscape:dxfpoint="1"
         d="m 67970.9 -47618.5 l 2.9375 -6.34375 l 0.8125 1.90625 l 6.84375 -6.84375 l 0 0 l 0.6875 0.6875 l -6.84375 6.84375 l 1.90625 0.8125 z"
         id="path186" /></symbol><symbol
       id="*D14"><path
         style="fill:none;stroke:#000000"
         d="M 68224.1 -47190.4 L 68224.1 -47214"
         id="path189" /><path
         style="fill:none;stroke:#000000"
         d="M 67970.9 -47190.4 L 67970.9 -47214"
         id="path191" /><path
         style="fill:none;stroke:#000000"
         d="M 68214.7 -47209.3 L 67980.4 -47209.3"
         id="path193" /><path
         style="fill:none;stroke:#000000"
         d="M 68214.7 -47210.8 L 68214.7 -47207.7 L 68224.1 -47209.3 z"
         id="path195" /><path
         style="fill:none;stroke:#000000"
         d="M 67980.4 -47210.8 L 67980.4 -47207.7 L 67970.9 -47209.3 z"
         id="path197" /><text
         x="68097.530017"
         y="-47216.440936"
         style="font-size: 9.449px; fill: #000000; font-family: Arial; text-anchor: middle"
         id="text201"><tspan
           sodipodi:role="line"
           dx="0.000000"
           dy="4.724409"
           id="tspan199">67</tspan></text><path
         style="stroke:none;fill:#ff0000"
         inkscape:dxfpoint="1"
         d="m 68224.1 -47188 l 2.9375 -6.34375 l 0.8125 1.90625 l 6.84375 -6.84375 l 0 0 l 0.6875 0.6875 l -6.84375 6.84375 l 1.90625 0.8125 z"
         id="path203" /><path
         style="stroke:none;fill:#ff0000"
         inkscape:dxfpoint="1"
         d="m 67970.9 -47188 l 2.9375 -6.34375 l 0.8125 1.90625 l 6.84375 -6.84375 l 0 0 l 0.6875 0.6875 l -6.84375 6.84375 l 1.90625 0.8125 z"
         id="path205" /><path
         style="stroke:none;fill:#ff0000"
         inkscape:dxfpoint="1"
         d="m 67970.9 -47209.3 l 2.9375 -6.34375 l 0.8125 1.90625 l 6.84375 -6.84375 l 0 0 l 0.6875 0.6875 l -6.84375 6.84375 l 1.90625 0.8125 z"
         id="path207" /></symbol><symbol
       id="*D18"><path
         style="fill:none;stroke:#000000"
         d="M 68220.7 -47598.6 L 68220.7 -47610.7"
         id="path210" /><path
         style="fill:none;stroke:#000000"
         d="M 68353 -47598.6 L 68353 -47610.7"
         id="path212" /><path
         style="fill:none;stroke:#000000"
         d="M 68230.2 -47606 L 68343.6 -47606"
         id="path214" /><path
         style="fill:none;stroke:#000000"
         d="M 68230.2 -47607.6 L 68230.2 -47604.4 L 68220.7 -47606 z"
         id="path216" /><path
         style="fill:none;stroke:#000000"
         d="M 68343.6 -47607.6 L 68343.6 -47604.4 L 68353 -47606 z"
         id="path218" /><text
         x="68286.880879"
         y="-47613.170947"
         style="font-size: 9.449px; fill: #000000; font-family: Arial; text-anchor: middle"
         id="text222"><tspan
           sodipodi:role="line"
           dx="0.000000"
           dy="4.724409"
           id="tspan220">35</tspan></text><path
         style="stroke:none;fill:#ff0000"
         inkscape:dxfpoint="1"
         d="m 68220.7 -47596.2 l 2.9375 -6.34375 l 0.8125 1.90625 l 6.84375 -6.84375 l 0 0 l 0.6875 0.6875 l -6.84375 6.84375 l 1.90625 0.8125 z"
         id="path224" /><path
         style="stroke:none;fill:#ff0000"
         inkscape:dxfpoint="1"
         d="m 68353 -47596.2 l 2.9375 -6.34375 l 0.8125 1.90625 l 6.84375 -6.84375 l 0 0 l 0.6875 0.6875 l -6.84375 6.84375 l 1.90625 0.8125 z"
         id="path226" /><path
         style="stroke:none;fill:#ff0000"
         inkscape:dxfpoint="1"
         d="m 68353 -47606 l 2.9375 -6.34375 l 0.8125 1.90625 l 6.84375 -6.84375 l 0 0 l 0.6875 0.6875 l -6.84375 6.84375 l 1.90625 0.8125 z"
         id="path228" /></symbol><symbol
       id="*D19"><path
         style="fill:none;stroke:#000000"
         d="M 67377.1 -47774.3 L 67377.1 -47812.3"
         id="path231" /><path
         style="fill:none;stroke:#000000"
         d="M 68548.7 -47774.3 L 68548.7 -47812.3"
         id="path233" /><path
         style="fill:none;stroke:#000000"
         d="M 67386.5 -47807.5 L 68539.3 -47807.5"
         id="path235" /><path
         style="fill:none;stroke:#000000"
         d="M 67386.5 -47809.1 L 67386.5 -47806 L 67377.1 -47807.5 z"
         id="path237" /><path
         style="fill:none;stroke:#000000"
         d="M 68539.3 -47809.1 L 68539.3 -47806 L 68548.7 -47807.5 z"
         id="path239" /><text
         x="67962.894929"
         y="-47814.716512"
         style="font-size: 9.449px; fill: #000000; font-family: Arial; text-anchor: middle"
         id="text243"><tspan
           sodipodi:role="line"
           dx="0.000000"
           dy="4.724409"
           id="tspan241">310</tspan></text><path
         style="stroke:none;fill:#ff0000"
         inkscape:dxfpoint="1"
         d="m 67377.1 -47771.9 l 2.9375 -6.34375 l 0.8125 1.90625 l 6.84375 -6.84375 l 0 0 l 0.6875 0.6875 l -6.84375 6.84375 l 1.90625 0.8125 z"
         id="path245" /><path
         style="stroke:none;fill:#ff0000"
         inkscape:dxfpoint="1"
         d="m 68548.7 -47771.9 l 2.9375 -6.34375 l 0.8125 1.90625 l 6.84375 -6.84375 l 0 0 l 0.6875 0.6875 l -6.84375 6.84375 l 1.90625 0.8125 z"
         id="path247" /><path
         style="stroke:none;fill:#ff0000"
         inkscape:dxfpoint="1"
         d="m 68548.7 -47807.5 l 2.9375 -6.34375 l 0.8125 1.90625 l 6.84375 -6.84375 l 0 0 l 0.6875 0.6875 l -6.84375 6.84375 l 1.90625 0.8125 z"
         id="path249" /></symbol><symbol
       id="*D20"><path
         style="fill:none;stroke:#000000"
         d="M 68551.1 -47771.9 L 68592.6 -47771.9"
         id="path252" /><path
         style="fill:none;stroke:#000000"
         d="M 68551.1 -46940.4 L 68592.6 -46940.4"
         id="path254" /><path
         style="fill:none;stroke:#000000"
         d="M 68587.9 -47762.5 L 68587.9 -46949.9"
         id="path256" /><path
         style="fill:none;stroke:#000000"
         d="M 68586.3 -47762.5 L 68589.4 -47762.5 L 68587.9 -47771.9 z"
         id="path258" /><path
         style="fill:none;stroke:#000000"
         d="M 68586.3 -46949.9 L 68589.4 -46949.9 L 68587.9 -46940.4 z"
         id="path260" /><text
         x="68580.679576"
         y="-47356.151547"
         style="font-size: 9.449px; fill: #000000; font-family: Arial; text-anchor: middle"
         transform="rotate (-90.000000 68580.679576 -47356.151547)"
         id="text264"><tspan
           sodipodi:role="line"
           dx="0.000000"
           dy="4.724409"
           id="tspan262">220</tspan></text><path
         style="stroke:none;fill:#ff0000"
         inkscape:dxfpoint="1"
         d="m 68548.7 -47771.9 l 2.9375 -6.34375 l 0.8125 1.90625 l 6.84375 -6.84375 l 0 0 l 0.6875 0.6875 l -6.84375 6.84375 l 1.90625 0.8125 z"
         id="path266" /><path
         style="stroke:none;fill:#ff0000"
         inkscape:dxfpoint="1"
         d="m 68548.7 -46940.4 l 2.9375 -6.34375 l 0.8125 1.90625 l 6.84375 -6.84375 l 0 0 l 0.6875 0.6875 l -6.84375 6.84375 l 1.90625 0.8125 z"
         id="path268" /><path
         style="stroke:none;fill:#ff0000"
         inkscape:dxfpoint="1"
         d="m 68587.9 -46940.4 l 2.9375 -6.34375 l 0.8125 1.90625 l 6.84375 -6.84375 l 0 0 l 0.6875 0.6875 l -6.84375 6.84375 l 1.90625 0.8125 z"
         id="path270" /></symbol><symbol
       id="*D21"><path
         style="fill:none;stroke:#000000"
         d="M 68396.2 -47486.8 L 68396.2 -47506.2"
         id="path273" /><path
         style="fill:none;stroke:#000000"
         d="M 68502 -47486.8 L 68502 -47506.2"
         id="path275" /><path
         style="fill:none;stroke:#000000"
         d="M 68405.7 -47501.5 L 68492.6 -47501.5"
         id="path277" /><path
         style="fill:none;stroke:#000000"
         d="M 68405.7 -47503.1 L 68405.7 -47499.9 L 68396.2 -47501.5 z"
         id="path279" /><path
         style="fill:none;stroke:#000000"
         d="M 68492.6 -47503.1 L 68492.6 -47499.9 L 68502 -47501.5 z"
         id="path281" /><text
         x="68449.129757"
         y="-47508.665876"
         style="font-size: 9.449px; fill: #000000; font-family: Arial; text-anchor: middle"
         id="text285"><tspan
           sodipodi:role="line"
           dx="0.000000"
           dy="4.724409"
           id="tspan283">28</tspan></text><path
         style="stroke:none;fill:#ff0000"
         inkscape:dxfpoint="1"
         d="m 68396.2 -47484.4 l 2.9375 -6.34375 l 0.8125 1.90625 l 6.84375 -6.84375 l 0 0 l 0.6875 0.6875 l -6.84375 6.84375 l 1.90625 0.8125 z"
         id="path287" /><path
         style="stroke:none;fill:#ff0000"
         inkscape:dxfpoint="1"
         d="m 68502 -47484.4 l 2.9375 -6.34375 l 0.8125 1.90625 l 6.84375 -6.84375 l 0 0 l 0.6875 0.6875 l -6.84375 6.84375 l 1.90625 0.8125 z"
         id="path289" /><path
         style="stroke:none;fill:#ff0000"
         inkscape:dxfpoint="1"
         d="m 68502 -47501.5 l 2.9375 -6.34375 l 0.8125 1.90625 l 6.84375 -6.84375 l 0 0 l 0.6875 0.6875 l -6.84375 6.84375 l 1.90625 0.8125 z"
         id="path291" /></symbol><symbol
       id="*D22"><path
         style="fill:none;stroke:#000000"
         d="M 68512.4 -47000.2 L 68512.4 -46977.1"
         id="path294" /><path
         style="fill:none;stroke:#000000"
         d="M 68385.8 -47000.2 L 68385.8 -46977.1"
         id="path296" /><path
         style="fill:none;stroke:#000000"
         d="M 68503 -46981.9 L 68395.3 -46981.9"
         id="path298" /><path
         style="fill:none;stroke:#000000"
         d="M 68503 -46983.4 L 68503 -46980.3 L 68512.4 -46981.9 z"
         id="path300" /><path
         style="fill:none;stroke:#000000"
         d="M 68395.3 -46983.4 L 68395.3 -46980.3 L 68385.8 -46981.9 z"
         id="path302" /><text
         x="68449.129757"
         y="-46989.904087"
         style="font-size: 9.449px; fill: #000000; font-family: Arial; text-anchor: middle"
         id="text306"><tspan
           sodipodi:role="line"
           dx="0.000000"
           dy="4.724409"
           id="tspan304">33,5</tspan></text><path
         style="stroke:none;fill:#ff0000"
         inkscape:dxfpoint="1"
         d="m 68512.4 -47002.5 l 2.9375 -6.34375 l 0.8125 1.90625 l 6.84375 -6.84375 l 0 0 l 0.6875 0.6875 l -6.84375 6.84375 l 1.90625 0.8125 z"
         id="path308" /><path
         style="stroke:none;fill:#ff0000"
         inkscape:dxfpoint="1"
         d="m 68385.8 -47002.5 l 2.9375 -6.34375 l 0.8125 1.90625 l 6.84375 -6.84375 l 0 0 l 0.6875 0.6875 l -6.84375 6.84375 l 1.90625 0.8125 z"
         id="path310" /><path
         style="stroke:none;fill:#ff0000"
         inkscape:dxfpoint="1"
         d="m 68385.8 -46981.9 l 2.9375 -6.34375 l 0.8125 1.90625 l 6.84375 -6.84375 l 0 0 l 0.6875 0.6875 l -6.84375 6.84375 l 1.90625 0.8125 z"
         id="path312" /></symbol><symbol
       id="*D23"><path
         style="fill:none;stroke:#000000"
         d="M 68227.8 -47197.5 L 68206 -47197.5"
         id="path315" /><path
         style="fill:none;stroke:#000000"
         d="M 68227.8 -47343 L 68206 -47343"
         id="path317" /><path
         style="fill:none;stroke:#000000"
         d="M 68210.7 -47206.9 L 68210.7 -47333.5"
         id="path319" /><path
         style="fill:none;stroke:#000000"
         d="M 68209.1 -47206.9 L 68212.3 -47206.9 L 68210.7 -47197.5 z"
         id="path321" /><path
         style="fill:none;stroke:#000000"
         d="M 68209.1 -47333.5 L 68212.3 -47333.5 L 68210.7 -47343 z"
         id="path323" /><text
         x="68202.680186"
         y="-47270.230436"
         style="font-size: 9.449px; fill: #000000; font-family: Arial; text-anchor: middle"
         transform="rotate (-90.000000 68202.680186 -47270.230436)"
         id="text327"><tspan
           sodipodi:role="line"
           dx="0.000000"
           dy="4.724409"
           id="tspan325">38,5</tspan></text><path
         style="stroke:none;fill:#ff0000"
         inkscape:dxfpoint="1"
         d="m 68230.2 -47197.5 l 2.9375 -6.34375 l 0.8125 1.90625 l 6.84375 -6.84375 l 0 0 l 0.6875 0.6875 l -6.84375 6.84375 l 1.90625 0.8125 z"
         id="path329" /><path
         style="stroke:none;fill:#ff0000"
         inkscape:dxfpoint="1"
         d="m 68230.2 -47343 l 2.9375 -6.34375 l 0.8125 1.90625 l 6.84375 -6.84375 l 0 0 l 0.6875 0.6875 l -6.84375 6.84375 l 1.90625 0.8125 z"
         id="path331" /><path
         style="stroke:none;fill:#ff0000"
         inkscape:dxfpoint="1"
         d="m 68210.7 -47343 l 2.9375 -6.34375 l 0.8125 1.90625 l 6.84375 -6.84375 l 0 0 l 0.6875 0.6875 l -6.84375 6.84375 l 1.90625 0.8125 z"
         id="path333" /></symbol><symbol
       id="*D24"><path
         style="fill:none;stroke:#000000"
         d="M 68526.9 -47195.1 L 68526.9 -47173.8"
         id="path336" /><path
         style="fill:none;stroke:#000000"
         d="M 68230.2 -47195.1 L 68230.2 -47173.8"
         id="path338" /><path
         style="fill:none;stroke:#000000"
         d="M 68517.4 -47178.5 L 68239.6 -47178.5"
         id="path340" /><path
         style="fill:none;stroke:#000000"
         d="M 68517.4 -47180.1 L 68517.4 -47176.9 L 68526.9 -47178.5 z"
         id="path342" /><path
         style="fill:none;stroke:#000000"
         d="M 68239.6 -47180.1 L 68239.6 -47176.9 L 68230.2 -47178.5 z"
         id="path344" /><text
         x="68378.534423"
         y="-47186.528271"
         style="font-size: 9.449px; fill: #000000; font-family: Arial; text-anchor: middle"
         id="text348"><tspan
           sodipodi:role="line"
           dx="0.000000"
           dy="4.724409"
           id="tspan346">78,5</tspan></text><path
         style="stroke:none;fill:#ff0000"
         inkscape:dxfpoint="1"
         d="m 68526.9 -47197.5 l 2.9375 -6.34375 l 0.8125 1.90625 l 6.84375 -6.84375 l 0 0 l 0.6875 0.6875 l -6.84375 6.84375 l 1.90625 0.8125 z"
         id="path350" /><path
         style="stroke:none;fill:#ff0000"
         inkscape:dxfpoint="1"
         d="m 68230.2 -47197.5 l 2.9375 -6.34375 l 0.8125 1.90625 l 6.84375 -6.84375 l 0 0 l 0.6875 0.6875 l -6.84375 6.84375 l 1.90625 0.8125 z"
         id="path352" /><path
         style="stroke:none;fill:#ff0000"
         inkscape:dxfpoint="1"
         d="m 68230.2 -47178.5 l 2.9375 -6.34375 l 0.8125 1.90625 l 6.84375 -6.84375 l 0 0 l 0.6875 0.6875 l -6.84375 6.84375 l 1.90625 0.8125 z"
         id="path354" /></symbol></defs><g
     inkscape:label="Ebene 1"
     inkscape:groupmode="layer"
     id="layer1"><g
       id="g584"
       transform="matrix(0.26458333,0,0,0.26458333,-18448.574,12719.977)"><g
         inkscape:label="0"
         id="g423"><path
           d="m 69757.631,-48044.768 h 1171.654 v 831.496 h -1171.654 z"
           style="fill:none;stroke:#000000;stroke-width:0.07559055;stroke-dasharray:none"
           id="path359" /><path
           d="m 70351.479,-47676.327 v 215.433"
           style="fill:none;stroke:#000000;stroke-width:0.07559055;stroke-dasharray:none"
           id="path361" /><path
           d="m 70351.479,-47275.697 h 253.228 v -35.905"
           style="fill:none;stroke:#000000;stroke-width:0.07559055;stroke-dasharray:none"
           id="path363" /><path
           d="m 70604.707,-47424.988 h 94.488 v 113.386 h -94.488"
           style="fill:none;stroke:#000000;stroke-width:0.07559055;stroke-dasharray:none"
           id="path365" /><path
           d="m 70427.069,-47516.642 v 55.748"
           style="fill:none;stroke:#000000;stroke-width:0.07559055;stroke-dasharray:none"
           id="path367" /><path
           d="m 70472.424,-47604.516 h 18.897 v 103.937 h -18.897"
           style="fill:none;stroke:#000000;stroke-width:0.07559055;stroke-dasharray:none"
           id="path369" /><path
           d="m 70427.069,-47516.642 h -18.897 v -71.811 h 18.897"
           style="fill:none;stroke:#000000;stroke-width:0.07559055;stroke-dasharray:none"
           id="path371" /><path
           d="m 70351.479,-47869.083 h 211.653 v 192.756 h -211.653"
           style="fill:none;stroke:#000000;stroke-width:0.07559055;stroke-dasharray:none"
           id="path373" /><text
           x="69808.797"
           y="-47953.5"
           style="font-size:37.795px;font-family:Arial;text-anchor:start;fill:#000000"
           id="text377"><tspan
             sodipodi:role="line"
             dx="0"
             dy="0"
             id="tspan375"
             x="69808.797"
             y="-47953.5">CoreBox</tspan></text><text
           x="70722.18"
           y="-48000.027"
           style="font-size:37.796px;font-family:Arial;text-anchor:start;fill:#000000;stroke-width:1.00003"
           id="text381"
           transform="scale(0.9999736,1.0000264)"><tspan
             sodipodi:role="line"
             dx="0"
             dy="37.796276"
             id="tspan379"
             x="70722.18"
             y="-48000.027"
             style="stroke-width:1.00003">openUC2</tspan></text><path
           d="M 70882.606,-47439.825 H 70893 v 164.41 h -126.614 v -164.41 h 10.393"
           style="fill:none;stroke:#000000;stroke-width:0.07559055;stroke-dasharray:none"
           id="path383" /><path
           d="m 70776.779,-47615.854 v -141.451 h 105.827 v 141.451"
           style="fill:none;stroke:#000000;stroke-width:0.07559055;stroke-dasharray:none"
           id="path385" /><path
           d="m 70882.606,-47615.854 h 24.838 v 145.511 h -24.838"
           style="fill:none;stroke:#000000;stroke-width:0.07559055;stroke-dasharray:none"
           id="path387" /><path
           d="m 70610.751,-47812.39 h -9.449 v -56.693 h 132.284 v 56.693 h -9.449"
           style="fill:none;stroke:#000000;stroke-width:0.07559055;stroke-dasharray:none"
           id="path389" /><path
           style="fill:none;stroke:#000000;stroke-width:0.07559055;stroke-dasharray:none"
           d="m 70601.263,-47812.368 h 9.5"
           id="path391" /><path
           d="m 70610.751,-47791.63 v -20.76"
           style="fill:none;stroke:#000000;stroke-width:0.07559055;stroke-dasharray:none"
           id="path393" /><path
           d="m 70610.751,-47791.63 a 61.417323,61.417323 0 0 0 0,113.386"
           style="fill:none;stroke:#000000;stroke-width:0.07559055;stroke-dasharray:none"
           id="path395" /><path
           d="m 70724.137,-47678.244 a 61.417323,61.417323 0 0 0 0,-113.386"
           style="fill:none;stroke:#000000;stroke-width:0.07559055;stroke-dasharray:none"
           id="path397" /><path
           d="m 70351.479,-47275.697 h -563.15 v -593.386 h 563.15"
           style="fill:none;stroke:#000000;stroke-width:0.07559055;stroke-dasharray:none"
           id="path403" /><path
           d="m 70472.424,-47604.516 v -7.559 h -45.355 v 23.622"
           style="fill:none;stroke:#000000;stroke-width:0.07559055;stroke-dasharray:none"
           id="path405" /><path
           d="m 70604.707,-47424.988 v -35.906 h -132.283"
           style="fill:none;stroke:#000000;stroke-width:0.07559055;stroke-dasharray:none"
           id="path407" /><path
           d="m 70882.606,-47470.343 v 30.518"
           style="fill:none;stroke:#000000;stroke-width:0.07559055;stroke-dasharray:none"
           id="path409" /><path
           d="m 70776.779,-47470.343 h -166.028 v -145.511 h 166.028"
           style="fill:none;stroke:#000000;stroke-width:0.07559055;stroke-dasharray:none"
           id="path411" /><path
           d="m 70724.137,-47678.244 v 43.492 h -113.386 v -43.492"
           style="fill:none;stroke:#000000;stroke-width:0.07559055;stroke-dasharray:none"
           id="path413" /><path
           d="m 70472.424,-47460.894 v -39.685"
           style="fill:none;stroke:#000000;stroke-width:0.07559055;stroke-dasharray:none"
           id="path415" /><path
           d="m 70427.069,-47460.894 h -75.59"
           style="fill:none;stroke:#000000;stroke-width:0.07559055;stroke-dasharray:none"
           id="path417" /><path
           d="m 70724.137,-47812.39 v 20.76"
           style="fill:none;stroke:#000000;stroke-width:0.07559055;stroke-dasharray:none"
           id="path419" /><path
           d="m 70776.779,-47439.825 v -30.518"
           style="fill:none;stroke:#000000;stroke-width:0.07559055;stroke-dasharray:none"
           id="path421" /></g><g
         inkscape:label="Defpoints"
         id="g425" /></g></g></svg>
